<svg width="32" height="33" viewBox="0 0 32 33" fill="none" xmlns="http://www.w3.org/2000/svg">
<g clip-path="url(#clip0_231_5045)">
<path d="M24.6667 21.8158C23.196 21.8158 22 23.0118 22 24.4824C22 25.9531 23.196 27.1491 24.6667 27.1491C26.1373 27.1491 27.3333 25.9531 27.3333 24.4824C27.3333 23.0118 26.1373 21.8158 24.6667 21.8158ZM24.6667 25.8158C23.932 25.8158 23.3333 25.2184 23.3333 24.4824C23.3333 23.7464 23.932 23.1491 24.6667 23.1491C25.4013 23.1491 26 23.7464 26 24.4824C26 25.2184 25.4013 25.8158 24.6667 25.8158ZM31.776 21.9438C32.0667 20.9091 31.3867 19.7544 30.3413 19.5064C29.8253 19.3704 29.2867 19.4478 28.8253 19.7184L28.528 19.8931C27.984 19.4398 27.3533 19.0851 26.6667 18.8451V18.4838C26.6667 17.3811 25.7693 16.4838 24.6667 16.4838C23.564 16.4838 22.6667 17.3811 22.6667 18.4838V18.8451C21.98 19.0851 21.3493 19.4398 20.8053 19.8931L20.508 19.7184C20.048 19.4478 19.5107 19.3704 18.992 19.5064C17.9453 19.7558 17.2667 20.9104 17.5573 21.9438C17.692 22.4624 18.02 22.8958 18.48 23.1651L18.792 23.3491C18.7067 23.7491 18.6667 24.1171 18.6667 24.4838C18.6667 24.8504 18.7067 25.2184 18.792 25.6171L18.48 25.8011C18.02 26.0718 17.692 26.5051 17.5587 27.0224C17.268 28.0584 17.9467 29.2118 18.9933 29.4611C19.512 29.5984 20.0493 29.5198 20.5093 29.2491L20.8067 29.0744C21.3507 29.5278 21.9813 29.8824 22.668 30.1224V30.4838C22.668 31.5864 23.5653 32.4838 24.668 32.4838C25.7707 32.4838 26.668 31.5864 26.668 30.4838V30.1224C27.3547 29.8824 27.9853 29.5278 28.5293 29.0744L28.8267 29.2491C29.2893 29.5198 29.8267 29.5984 30.3427 29.4611C31.3893 29.2118 32.068 28.0584 31.7773 27.0224C31.6427 26.5051 31.316 26.0718 30.8547 25.7998L30.544 25.6171C30.6293 25.2184 30.6693 24.8504 30.6693 24.4838C30.6693 24.1171 30.6293 23.7491 30.544 23.3491L30.8547 23.1664C31.316 22.8958 31.6413 22.4624 31.776 21.9438ZM29.1333 23.2091C29.2707 23.6904 29.3347 24.0958 29.3347 24.4824C29.3347 24.8691 29.2707 25.2744 29.1333 25.7558C29.0507 26.0478 29.1747 26.3598 29.4373 26.5131L30.1787 26.9464C30.9293 27.3731 30.2427 28.5478 29.5027 28.0971L28.7813 27.6731C28.52 27.5184 28.1867 27.5611 27.972 27.7758C27.3987 28.3518 26.66 28.7664 25.8347 28.9798C25.54 29.0571 25.3347 29.3224 25.3347 29.6251V30.4811C25.3347 30.8478 25.036 31.1478 24.668 31.1478C24.3 31.1478 24.0013 30.8478 24.0013 30.4811V29.6251C24.0013 29.3211 23.796 29.0558 23.5013 28.9798C22.676 28.7664 21.9373 28.3504 21.364 27.7758C21.236 27.6464 21.064 27.5811 20.892 27.5811C20.776 27.5811 20.6587 27.6104 20.5547 27.6731L19.8333 28.0971C19.0947 28.5464 18.4067 27.3731 19.1573 26.9478L19.8987 26.5131C20.1613 26.3598 20.2867 26.0464 20.2027 25.7558C20.0653 25.2744 20.0013 24.8691 20.0013 24.4824C20.0013 24.0958 20.0653 23.6904 20.2027 23.2091C20.2853 22.9171 20.1613 22.6064 19.8987 22.4531L19.156 22.0158C18.404 21.5891 19.096 20.4184 19.832 20.8678L20.5533 21.2918C20.8147 21.4464 21.148 21.4038 21.3627 21.1891C21.936 20.6131 22.6747 20.1984 23.5 19.9851C23.7947 19.9078 24 19.6424 24 19.3398V18.4838C24 18.1171 24.2987 17.8171 24.6667 17.8171C25.0347 17.8171 25.3333 18.1171 25.3333 18.4838V19.3398C25.3333 19.6438 25.5387 19.9091 25.8333 19.9851C26.6587 20.1984 27.3973 20.6144 27.9707 21.1891C28.1853 21.4038 28.52 21.4464 28.78 21.2918L29.5013 20.8678C30.2387 20.4184 30.9293 21.5904 30.1773 22.0171L29.436 22.4531C29.1747 22.6064 29.0507 22.9184 29.1333 23.2091ZM16.668 31.1491H6C3.42667 31.1491 1.33333 29.0558 1.33333 26.4824V16.4824H19.3333C19.7013 16.4824 20 16.1838 20 15.8158C20 15.4478 19.7013 15.1491 19.3333 15.1491H1.33333V13.1491C1.33333 10.5758 3.42667 8.48242 6 8.48242H10.0373C10.3453 8.48242 10.656 8.55575 10.932 8.69309L15.14 10.7971C15.6 11.0278 16.116 11.1491 16.6307 11.1491H26.0013C28.5747 11.1491 30.668 13.2424 30.668 15.8158C30.668 16.1838 30.9667 16.4824 31.3347 16.4824C31.7027 16.4824 32.0013 16.1838 32.0013 15.8158C32.0013 12.5078 29.3093 9.81575 26.0013 9.81575H25.3347V7.47176C25.3347 6.24242 24.836 5.04109 23.968 4.17175L21.6453 1.84909C20.7627 0.967755 19.5907 0.482422 18.3453 0.482422H11.336C8.76267 0.482422 6.66933 2.57576 6.66933 5.14909V7.14909H6.00267C2.692 7.14909 0 9.84109 0 13.1491V26.4824C0 29.7904 2.692 32.4824 6 32.4824H16.6667C17.0347 32.4824 17.3333 32.1838 17.3333 31.8158C17.3333 31.4478 17.0347 31.1491 16.6667 31.1491H16.668ZM23.024 5.11575C23.232 5.32242 23.3973 5.56376 23.5413 5.81575H20.6667C20.2987 5.81575 20 5.51575 20 5.14909V2.27176C20.2507 2.41709 20.4907 2.58242 20.7 2.79309L23.024 5.11575ZM8 5.14909C8 3.31042 9.496 1.81576 11.3333 1.81576H18.3427C18.452 1.81576 18.5587 1.83709 18.6667 1.84776V5.14909C18.6667 6.25175 19.564 7.14909 20.6667 7.14909H23.968C23.9787 7.25709 24 7.36375 24 7.47176V9.81575H16.6293C16.3213 9.81575 16.0107 9.74242 15.7347 9.60509L11.5267 7.50109C11.0667 7.27042 10.5507 7.14909 10.036 7.14909H7.99867L8 5.14909Z" fill="#1AA9B9"/>
</g>
<defs>
<clipPath id="clip0_231_5045">
<rect width="32" height="32" fill="white" transform="translate(0 0.482422)"/>
</clipPath>
</defs>
</svg>
