<svg width="32" height="33" viewBox="0 0 32 33" fill="none" xmlns="http://www.w3.org/2000/svg">
<g clip-path="url(#clip0_231_5049)">
<path d="M13.334 27.1489H18.6673V28.4823H13.334V27.1489Z" fill="#1AA9B9"/>
<path d="M16 16.5131C16.448 16.5131 16.8973 16.3958 17.2973 16.1611L21.3333 13.7931V7.20245L17.2973 4.83445C16.4973 4.36378 15.5026 4.36378 14.704 4.83445L10.668 7.20245V13.7931L14.704 16.1611C15.104 16.3958 15.552 16.5131 16.0013 16.5131H16ZM15.3773 5.98378C15.7613 5.75845 16.2386 5.75845 16.6226 5.98378L19.744 7.81578L16.6226 9.64778C16.2386 9.87178 15.7626 9.87311 15.3773 9.64778L12.256 7.81578L15.3773 5.98378ZM12 9.21045L14.7026 10.7971C15.1026 11.0318 15.552 11.1491 16 11.1491C16.448 11.1491 16.8973 11.0318 17.2973 10.7971L20 9.21045V13.0304L16.6226 15.0118C16.2386 15.2371 15.7613 15.2371 15.3773 15.0118L12 13.0304V9.21045Z" fill="#1AA9B9"/>
<path d="M26.6668 7.46776V0.482422H5.33346V7.47176L-0.0332031 10.8078V11.6464L5.33346 14.9624V29.1491C5.33346 30.9864 6.82946 32.4824 8.6668 32.4824H23.3335C25.1708 32.4824 26.6668 30.9864 26.6668 29.1491V14.9664L31.9668 11.6931V10.7411L26.6668 7.46776ZM5.33346 13.3958L1.80813 11.2184L5.33346 9.03976V13.3958ZM25.3335 29.1491C25.3335 30.2518 24.4361 31.1491 23.3335 31.1491H8.6668C7.56413 31.1491 6.6668 30.2518 6.6668 29.1491V24.4824H25.3335V29.1491ZM25.3335 23.1491H6.6668V15.7864L16.0028 21.5544L25.3335 15.7904V23.1491ZM25.3335 14.2238L16.0028 19.9864L6.6668 14.2184V1.81576H25.3335V14.2238ZM26.6668 13.3998V9.03442L30.2001 11.2171L26.6668 13.3998Z" fill="#1AA9B9"/>
</g>
<defs>
<clipPath id="clip0_231_5049">
<rect width="32" height="32" fill="white" transform="translate(0 0.482422)"/>
</clipPath>
</defs>
</svg>
