<svg width="32" height="33" viewBox="0 0 32 33" fill="none" xmlns="http://www.w3.org/2000/svg">
<g clip-path="url(#clip0_231_5037)">
<path d="M14 8.48229C14 7.01162 12.804 5.81562 11.3333 5.81562C9.86267 5.81562 8.66667 7.01162 8.66667 8.48229C8.66667 9.95296 9.86267 11.149 11.3333 11.149C12.804 11.149 14 9.95296 14 8.48229ZM11.3333 9.81562C10.5973 9.81562 10 9.21829 10 8.48229C10 7.74629 10.5973 7.14896 11.3333 7.14896C12.0693 7.14896 12.6667 7.74629 12.6667 8.48229C12.6667 9.21829 12.0693 9.81562 11.3333 9.81562ZM5.14667 9.79829L5.45733 9.61429C5.37333 9.21562 5.332 8.84762 5.332 8.48096C5.332 8.11429 5.372 7.74629 5.45867 7.34629L5.14667 7.16229C4.68667 6.89296 4.35867 6.45962 4.22533 5.94229C4.09067 5.42362 4.16667 4.88629 4.43733 4.42496C4.70667 3.96496 5.14 3.63696 5.65733 3.50362C6.176 3.36629 6.71333 3.44362 7.176 3.71562L7.47333 3.89029C8.016 3.43696 8.648 3.08229 9.33467 2.84229V2.48096C9.33467 1.37829 10.232 0.480957 11.3347 0.480957C12.4373 0.480957 13.3347 1.37829 13.3347 2.48096V2.84229C14.0213 3.08229 14.652 3.43696 15.196 3.89029L15.4933 3.71562C15.956 3.44362 16.492 3.36629 17.012 3.50362C17.5293 3.63829 17.9627 3.96629 18.2333 4.42629C18.5027 4.88629 18.5787 5.42362 18.444 5.94229C18.3093 6.45962 17.9813 6.89296 17.5213 7.16362L17.2107 7.34629C17.296 7.74629 17.3373 8.11429 17.3373 8.48096C17.3373 8.84762 17.2973 9.21562 17.212 9.61429L17.5213 9.79696C17.9827 10.069 18.3107 10.5023 18.444 11.0196C18.5787 11.5383 18.5027 12.0756 18.232 12.537C17.9627 12.997 17.5293 13.325 17.012 13.4583C16.492 13.597 15.956 13.5183 15.4933 13.2463L15.196 13.0716C14.6533 13.525 14.0213 13.8796 13.3347 14.1196V14.481C13.3347 14.849 13.036 15.1476 12.668 15.1476C12.3 15.1476 12.0013 14.849 12.0013 14.481V13.625C12.0013 13.321 12.2067 13.0556 12.5013 12.9796C13.3267 12.7663 14.0653 12.3503 14.64 11.7756C14.8533 11.561 15.188 11.5196 15.4493 11.673L16.1693 12.097C16.3227 12.1863 16.5 12.2116 16.6747 12.1676C16.848 12.1236 16.9907 12.0143 17.0813 11.861C17.172 11.7076 17.1973 11.5276 17.1533 11.3556C17.1093 11.1823 17 11.0383 16.8453 10.9463L16.1053 10.513C15.844 10.3583 15.7187 10.0463 15.8013 9.75562C15.9387 9.27429 16.0013 8.86896 16.0013 8.48229C16.0013 8.09562 15.9373 7.69029 15.8013 7.20896C15.7187 6.91696 15.8413 6.60629 16.104 6.45296L16.8453 6.01696C17 5.92629 17.1093 5.78096 17.1533 5.60896C17.1973 5.43696 17.1733 5.25696 17.0827 5.10496C16.992 4.95029 16.848 4.84096 16.6747 4.79696C16.5013 4.75296 16.3213 4.77696 16.1693 4.86762L15.4493 5.29162C15.1867 5.44496 14.8533 5.40362 14.64 5.18896C14.0653 4.61296 13.328 4.19829 12.5013 3.98496C12.2067 3.90762 12.0013 3.64229 12.0013 3.33962V2.48362C12.0013 2.11696 11.7013 1.81696 11.3347 1.81696C10.968 1.81696 10.668 2.11696 10.668 2.48362V3.33962C10.668 3.64362 10.4627 3.90896 10.168 3.98496C9.34267 4.19829 8.604 4.61429 8.02933 5.18896C7.816 5.40496 7.48267 5.44629 7.22 5.29162L6.5 4.86762C6.34667 4.77829 6.168 4.75162 5.99467 4.79696C5.82133 4.84096 5.67867 4.95029 5.588 5.10362C5.49733 5.25696 5.472 5.43696 5.516 5.60896C5.56 5.78096 5.66933 5.92496 5.82267 6.01562L6.56533 6.45296C6.82667 6.60629 6.95067 6.91829 6.868 7.20896C6.73067 7.69029 6.668 8.09562 6.668 8.48229C6.668 8.86896 6.732 9.27429 6.868 9.75562C6.95067 10.0476 6.82667 10.3583 6.564 10.513L5.82267 10.9476C5.66933 11.037 5.56 11.1823 5.516 11.3556C5.472 11.5276 5.496 11.7076 5.58667 11.8596C5.67733 12.0143 5.82133 12.1236 5.99467 12.1676C6.17067 12.213 6.34933 12.1876 6.5 12.097L7.22 11.673C7.48 11.5183 7.81467 11.5596 8.02933 11.7756C8.604 12.3516 9.34133 12.7663 10.168 12.9796C10.4627 13.057 10.668 13.3223 10.668 13.625V14.481C10.668 14.849 10.3693 15.1476 10.0013 15.1476C9.63333 15.1476 9.33467 14.849 9.33467 14.481V14.1196C8.648 13.8796 8.01733 13.525 7.47333 13.0716L7.176 13.2463C6.71333 13.5183 6.176 13.597 5.65733 13.4583C5.14 13.3236 4.70667 12.9956 4.436 12.5356C4.16667 12.0756 4.09067 11.5383 4.22533 11.0196C4.36 10.5023 4.688 10.069 5.14667 9.79829ZM30.9067 13.3543C30.244 12.753 29.3787 12.4436 28.4947 12.4863C27.6013 12.5276 26.7773 12.9143 26.176 13.5756L21.2 19.0463C20.7813 17.569 19.42 16.4823 17.8093 16.4823H4.66667C2.09333 16.4823 0 18.5756 0 21.149V27.8156C0 30.389 2.09333 32.4823 4.66667 32.4823H12.62C16.228 32.4823 19.6747 30.937 22.0773 28.2423L31.152 18.0556C32.3667 16.6943 32.256 14.5836 30.9067 13.3543ZM30.156 17.1676L21.0813 27.3543C18.932 29.7663 15.8467 31.149 12.6187 31.149H4.66667C2.828 31.149 1.33333 29.6543 1.33333 27.8156V21.149C1.33333 19.3103 2.828 17.8156 4.66667 17.8156H17.8093C19.016 17.8156 20 18.7983 20 20.0063C20 21.089 19.1933 22.021 18.136 22.1716L9.92133 23.1543C9.556 23.197 9.29467 23.529 9.33867 23.8956C9.38133 24.261 9.71467 24.5316 10.08 24.4783L18.3093 23.4943C19.672 23.2996 20.7707 22.3223 21.1707 21.0623L27.1653 14.477C27.5267 14.0783 28.0227 13.845 28.56 13.821C29.096 13.7956 29.6133 13.981 30.0107 14.3436C30.8227 15.085 30.888 16.353 30.1573 17.1716L30.156 17.1676Z" fill="#1AA9B9"/>
</g>
<defs>
<clipPath id="clip0_231_5037">
<rect width="32" height="32" fill="white" transform="translate(0 0.482422)"/>
</clipPath>
</defs>
</svg>
