<svg width="32" height="33" viewBox="0 0 32 33" fill="none" xmlns="http://www.w3.org/2000/svg">
<g clip-path="url(#clip0_231_5041)">
<path d="M18.6659 25.8158H19.9992V32.4824H11.9992V27.7971C10.7272 27.3478 9.54854 26.6851 8.48187 25.8224L4.48454 28.2904L0.283203 21.4824L4.28054 19.0158C4.09387 18.1624 3.9992 17.3131 3.9992 16.4838C3.9992 15.6544 4.09387 14.8051 4.28054 13.9518L0.283203 11.4824L4.48454 4.67576L8.48187 7.14375C9.54854 6.28109 10.7285 5.61842 11.9992 5.16909V0.482422H19.9992V7.14909H18.6659V1.81576H13.3325V6.14109C11.5712 6.61576 9.96187 7.52109 8.6112 8.78909L4.9192 6.51042L2.11787 11.0491L5.80987 13.3278C5.5192 14.3598 5.32454 15.4624 5.33254 16.4824C5.3232 17.5024 5.5192 18.6064 5.80987 19.6371L2.11787 21.9158L4.9192 26.4544L8.6112 24.1758C9.96187 25.4438 11.5712 26.3491 13.3325 26.8238V31.1491H18.6659V25.8158ZM26.6659 3.14909C26.6659 1.67842 27.8619 0.482422 29.3325 0.482422C30.8032 0.482422 31.9992 1.67842 31.9992 3.14909C31.9992 4.38776 31.1459 5.42242 29.9992 5.72109V11.1491H18.6659V9.81576H28.6659V5.72109C27.5192 5.42242 26.6659 4.38776 26.6659 3.14909ZM27.9992 3.14909C27.9992 3.88376 28.5965 4.48242 29.3325 4.48242C30.0685 4.48242 30.6659 3.88376 30.6659 3.14909C30.6659 2.41442 30.0685 1.81576 29.3325 1.81576C28.5965 1.81576 27.9992 2.41442 27.9992 3.14909ZM31.9992 29.8158C31.9992 31.2864 30.8032 32.4824 29.3325 32.4824C27.8619 32.4824 26.6659 31.2864 26.6659 29.8158C26.6659 28.5771 27.5192 27.5424 28.6659 27.2438V23.1491H18.6659V21.8158H29.9992V27.2438C31.1459 27.5424 31.9992 28.5771 31.9992 29.8158ZM30.6659 29.8158C30.6659 29.0811 30.0685 28.4824 29.3325 28.4824C28.5965 28.4824 27.9992 29.0811 27.9992 29.8158C27.9992 30.5504 28.5965 31.1491 29.3325 31.1491C30.0685 31.1491 30.6659 30.5504 30.6659 29.8158ZM31.9992 16.4824C31.9992 17.9531 30.8032 19.1491 29.3325 19.1491C28.0939 19.1491 27.0592 18.2958 26.7605 17.1491H18.6659V15.8158H26.7605C27.0592 14.6691 28.0939 13.8158 29.3325 13.8158C30.8032 13.8158 31.9992 15.0118 31.9992 16.4824ZM30.6659 16.4824C30.6659 15.7478 30.0685 15.1491 29.3325 15.1491C28.5965 15.1491 27.9992 15.7478 27.9992 16.4824C27.9992 17.2171 28.5965 17.8158 29.3325 17.8158C30.0685 17.8158 30.6659 17.2171 30.6659 16.4824ZM15.9992 12.4824V11.1491C13.0579 11.1491 10.6659 13.5411 10.6659 16.4824C10.6659 19.4238 13.0579 21.8158 15.9992 21.8158V20.4824C13.7939 20.4824 11.9992 18.6878 11.9992 16.4824C11.9992 14.2771 13.7939 12.4824 15.9992 12.4824Z" fill="#1AA9B9"/>
</g>
<defs>
<clipPath id="clip0_231_5041">
<rect width="32" height="32" fill="white" transform="translate(0 0.482422)"/>
</clipPath>
</defs>
</svg>
