<svg width="32" height="33" viewBox="0 0 32 33" fill="none" xmlns="http://www.w3.org/2000/svg">
<g clip-path="url(#clip0_231_5033)">
<path d="M32 29.8158C32 31.2891 30.8067 32.4824 29.3333 32.4824C28.3493 32.4824 27.4987 31.9424 27.036 31.1491H21.3333V19.1491H24V28.4824H27.036C27.4973 27.6891 28.348 27.1491 29.3333 27.1491C30.8067 27.1491 32 28.3424 32 29.8158ZM17.3333 27.5184V19.1491H14.6667V27.5184C13.8733 27.9798 13.3333 28.8304 13.3333 29.8158C13.3333 31.2891 14.5267 32.4824 16 32.4824C17.4733 32.4824 18.6667 31.2891 18.6667 29.8158C18.6667 28.8318 18.1267 27.9811 17.3333 27.5184ZM8 28.4824H4.964C4.50267 27.6891 3.652 27.1491 2.66667 27.1491C1.19333 27.1491 0 28.3424 0 29.8158C0 31.2891 1.19333 32.4824 2.66667 32.4824C3.65067 32.4824 4.50133 31.9424 4.964 31.1491H10.6667V19.1491H8V28.4824ZM22.4413 9.16242L23.1453 9.33176C26.004 10.0171 28 12.5451 28 15.4824C28 16.9358 27.496 18.2651 26.6667 19.3318V22.9371C29.0707 21.3211 30.6667 18.5904 30.6667 15.4824C30.6667 11.5478 28.1453 8.12642 24.4547 6.93176C22.78 3.04642 18.932 0.482422 14.6667 0.482422C8.78533 0.482422 4 5.26776 4 11.1491C4 11.5811 4.028 12.0158 4.08133 12.4504C2.36533 13.6958 1.33333 15.6744 1.33333 17.8158C1.33333 20.5411 2.98533 22.8731 5.33333 23.9064V20.7638C4.52133 20.0358 4 18.9918 4 17.8158C4 16.3398 4.828 14.9878 6.16133 14.2891L7.05867 13.8198L6.84667 12.8291C6.72667 12.2704 6.66667 11.7051 6.66667 11.1478C6.66667 6.73576 10.2547 3.14776 14.6667 3.14776C18.0413 3.14776 21.0693 5.28909 22.2 8.47842L22.4413 9.16109V9.16242Z" fill="#1AA9B9"/>
</g>
<defs>
<clipPath id="clip0_231_5033">
<rect width="32" height="32" fill="white" transform="translate(0 0.482422)"/>
</clipPath>
</defs>
</svg>
