<svg width="48" height="48" viewBox="0 0 48 48" fill="none" xmlns="http://www.w3.org/2000/svg">
<g clip-path="url(#clip0_644_5004)">
<path d="M35 38H34V37C34 34.794 32.206 33 30 33H25V30H26C27.654 30 29 28.654 29 27V23C29 21.346 27.654 20 26 20H22C20.346 20 19 21.346 19 23V27C19 28.654 20.346 30 22 30H23V33H18C15.794 33 14 34.794 14 37V38H13C11.346 38 10 39.346 10 41V45C10 46.654 11.346 48 13 48H17C18.654 48 20 46.654 20 45V41C20 39.346 18.654 38 17 38H16V37C16 35.898 16.896 35 18 35H30C31.104 35 32 35.898 32 37V38H31C29.346 38 28 39.346 28 41V45C28 46.654 29.346 48 31 48H35C36.654 48 38 46.654 38 45V41C38 39.346 36.654 38 35 38ZM21 27V23C21 22.448 21.45 22 22 22H26C26.55 22 27 22.448 27 23V27C27 27.552 26.55 28 26 28H22C21.45 28 21 27.552 21 27ZM18 41V45C18 45.552 17.55 46 17 46H13C12.45 46 12 45.552 12 45V41C12 40.448 12.45 40 13 40H17C17.55 40 18 40.448 18 41ZM36 45C36 45.552 35.55 46 35 46H31C30.45 46 30 45.552 30 45V41C30 40.448 30.45 40 31 40H35C35.55 40 36 40.448 36 41V45ZM39 0H9C4.038 0 0 4.038 0 9V35C0 38.186 1.708 41.164 4.462 42.774C4.934 43.05 5.55 42.894 5.83 42.416C6.11 41.94 5.95 41.328 5.47 41.048C3.33 39.796 2 37.478 2 35.002V16.002H46V35.002C46 37.48 44.67 39.796 42.53 41.048C42.052 41.328 41.892 41.94 42.17 42.416C42.45 42.898 43.07 43.05 43.538 42.774C46.292 41.164 48 38.186 48 35V9C48 4.038 43.962 0 39 0ZM2 14V9C2 5.14 5.14 2 9 2H39C42.86 2 46 5.14 46 9V14H2ZM10 8C10 9.104 9.104 10 8 10C6.896 10 6 9.104 6 8C6 6.896 6.896 6 8 6C9.104 6 10 6.896 10 8ZM16 8C16 9.104 15.104 10 14 10C12.896 10 12 9.104 12 8C12 6.896 12.896 6 14 6C15.104 6 16 6.896 16 8ZM22 8C22 9.104 21.104 10 20 10C18.896 10 18 9.104 18 8C18 6.896 18.896 6 20 6C21.104 6 22 6.896 22 8Z" fill="#3D3D3D"/>
</g>
<defs>
<clipPath id="clip0_644_5004">
<rect width="48" height="48" fill="white"/>
</clipPath>
</defs>
</svg>
