<svg width="48" height="48" viewBox="0 0 48 48" fill="none" xmlns="http://www.w3.org/2000/svg">
<g clip-path="url(#clip0_644_4994)">
<path d="M48 23V25H0V23H48ZM32 48H34V30H32V48ZM26 41C26 43.758 23.758 46 21 46C18.242 46 16 43.758 16 41V30H14V41C14 44.86 17.14 48 21 48C24.86 48 28 44.86 28 41V30H26V41ZM17 18C20.86 18 24 14.86 24 11V0H22V11C22 13.758 19.758 16 17 16C14.242 16 12 13.758 12 11V0H10V11C10 14.86 13.14 18 17 18ZM29.318 18L33.5 10.954L37.682 18H40L34.66 9L40 0H37.682L33.5 7.046L29.318 0H27L32.34 9L27 18H29.318Z" fill="#3D3D3D"/>
</g>
<defs>
<clipPath id="clip0_644_4994">
<rect width="48" height="48" fill="white"/>
</clipPath>
</defs>
</svg>
