<svg width="48" height="48" viewBox="0 0 48 48" fill="none" xmlns="http://www.w3.org/2000/svg">
<g clip-path="url(#clip0_644_4986)">
<path d="M21.4161 21.91L22.6761 26H20.1281L21.4161 21.91ZM45.2962 37.218C44.1422 39.076 41.7701 39.968 38.6301 39.968C37.7621 39.968 36.8162 39.874 35.8382 39.74C36.0322 39.128 36.2141 38.502 36.3821 37.854C40.0201 38.32 42.6301 37.72 43.5961 36.164C45.3721 33.302 41.8281 26.916 33.8961 20.67C33.9601 21.762 34.0182 22.86 34.0182 24.002C34.0182 37.46 29.6261 48.002 24.0181 48.002C21.5761 48.002 19.3641 45.998 17.6441 42.628C18.2821 42.444 18.9341 42.222 19.5861 42.002C20.9361 44.548 22.5101 46.002 24.0181 46.002C27.0141 46.002 30.2741 40.322 31.5041 31.524C30.8621 31.972 30.2021 32.414 29.5101 32.846C23.9521 36.3 18.1821 38.702 13.2661 39.612C11.8581 39.872 10.5581 40 9.38015 40C6.18615 40 3.88415 39.054 2.74415 37.224C2.74415 37.224 2.74215 37.224 2.74015 37.22C1.20415 34.746 2.16015 31.094 4.98615 27.134C5.43615 27.608 5.90415 28.08 6.39415 28.55C4.15015 31.774 3.43015 34.54 4.43815 36.164C5.51815 37.898 8.59615 38.44 12.9001 37.644C15.6361 37.138 18.6641 36.126 21.7761 34.716C20.6961 34.134 19.6121 33.52 18.5221 32.844C6.60215 25.434 -0.331851 15.748 2.74015 10.788C2.74015 10.788 2.74015 10.784 2.74215 10.782C4.21215 8.412 7.67615 7.63 12.1801 8.25C11.9881 8.864 11.8101 9.494 11.6421 10.146C8.01215 9.682 5.40815 10.282 4.44215 11.836C2.66415 14.7 6.21415 21.096 14.1601 27.348C14.0981 26.244 14.0001 25.152 14.0001 24C14.0001 10.544 18.4121 0.002 24.0181 0C26.4581 0 28.6681 2 30.3861 5.364C29.7461 5.55 29.0981 5.756 28.4401 5.982C27.0921 3.448 25.5221 2.002 24.0181 2.002C21.0201 2.002 17.7581 7.688 16.5301 16.494C17.1901 16.048 17.8281 15.592 18.5241 15.16C30.4501 7.75 42.2122 5.826 45.2962 10.784C46.8342 13.258 45.8741 16.912 43.0481 20.872C42.5981 20.398 42.1321 19.926 41.6421 19.454C43.8861 16.228 44.6061 13.464 43.5981 11.84C41.8741 9.066 34.9561 9.302 26.2201 13.286C27.3121 13.866 28.4081 14.472 29.5141 15.16C41.4461 22.572 48.3781 32.262 45.2981 37.22L45.2962 37.218ZM26.0001 30L22.3061 18H20.5501L16.7741 30H18.8721L19.5021 28H23.2941L23.9101 30H26.0021H26.0001ZM30.0001 18H28.0001V30H30.0001V18Z" fill="#3D3D3D"/>
</g>
<defs>
<clipPath id="clip0_644_4986">
<rect width="48" height="48" fill="white"/>
</clipPath>
</defs>
</svg>
